# Blender v2.76 (sub 0) OBJ File: 'round.blend'
# www.blender.org
mtllib thymio.mtl
o Cylinder_Cylinder.001
v -0.054203 -0.026500 0.071862
v -0.053629 -0.026500 0.072310
v -0.053629 0.026500 0.072310
v -0.054203 0.026500 0.071862
v -0.054367 -0.026500 0.071720
v -0.054367 0.026500 0.071720
v 0.054367 -0.026500 0.071720
v 0.054203 -0.026500 0.071862
v 0.053629 -0.026500 0.072310
v 0.050016 -0.026500 0.074855
v 0.046283 -0.026500 0.077219
v 0.042438 -0.026500 0.079397
v 0.038492 -0.026500 0.081383
v 0.034452 -0.026500 0.083174
v 0.030329 -0.026500 0.084764
v 0.026134 -0.026500 0.086150
v 0.021875 -0.026500 0.087329
v 0.017563 -0.026500 0.088297
v 0.013210 -0.026500 0.089052
v 0.008824 -0.026500 0.089593
v 0.004418 -0.026500 0.089918
v 0.000000 -0.026500 0.090027
v -0.004417 -0.026500 0.089918
v -0.008824 -0.026500 0.089593
v -0.013209 -0.026500 0.089053
v -0.017563 -0.026500 0.088297
v -0.021875 -0.026500 0.087329
v -0.026133 -0.026500 0.086150
v -0.030329 -0.026500 0.084764
v -0.034452 -0.026500 0.083174
v -0.038491 -0.026500 0.081383
v -0.042438 -0.026500 0.079397
v -0.046283 -0.026500 0.077219
v -0.050016 -0.026500 0.074855
v -0.054240 -0.026500 0.071773
v -0.054072 -0.026500 0.071813
v -0.053900 -0.026500 0.071827
v 0.053900 -0.026500 0.071827
v 0.054072 -0.026500 0.071813
v 0.054240 -0.026500 0.071773
v -0.050016 0.026500 0.074855
v -0.046283 0.026500 0.077219
v -0.042438 0.026500 0.079397
v -0.038491 0.026500 0.081383
v -0.034452 0.026500 0.083174
v -0.030329 0.026500 0.084764
v -0.026133 0.026500 0.086150
v -0.021875 0.026500 0.087329
v -0.017563 0.026500 0.088297
v -0.013209 0.026500 0.089053
v -0.008824 0.026500 0.089593
v -0.004417 0.026500 0.089918
v 0.000000 0.026500 0.090027
v 0.004418 0.026500 0.089918
v 0.008824 0.026500 0.089593
v 0.013210 0.026500 0.089052
v 0.017563 0.026500 0.088297
v 0.021875 0.026500 0.087329
v 0.026134 0.026500 0.086150
v 0.030329 0.026500 0.084764
v 0.034452 0.026500 0.083174
v 0.038492 0.026500 0.081383
v 0.042438 0.026500 0.079397
v 0.046283 0.026500 0.077219
v 0.050016 0.026500 0.074855
v 0.053629 0.026500 0.072310
v 0.054203 0.026500 0.071862
v 0.054367 0.026500 0.071720
v 0.054240 0.026500 0.071773
v 0.054072 0.026500 0.071813
v 0.053900 0.026500 0.071827
v -0.053900 0.026500 0.071827
v -0.054072 0.026500 0.071813
v -0.054240 0.026500 0.071773
v -0.053631 0.026500 0.070201
v -0.054027 0.026500 0.070221
v -0.054362 0.026500 0.070282
v -0.054625 0.026500 0.070382
v -0.054812 0.026500 0.070518
v -0.054917 0.026500 0.070687
v -0.054939 0.026500 0.070886
v -0.054875 0.026500 0.071108
v -0.054729 0.026500 0.071349
v -0.054503 0.026500 0.071602
v 0.054503 0.026500 0.071602
v 0.054729 0.026500 0.071349
v 0.054875 0.026500 0.071108
v 0.054939 0.026500 0.070886
v 0.054917 0.026500 0.070687
v 0.054812 0.026500 0.070518
v 0.054625 0.026500 0.070382
v 0.054362 0.026500 0.070282
v 0.054027 0.026500 0.070221
v 0.053631 0.026500 0.070201
v 0.053631 -0.026500 0.070201
v 0.054027 -0.026500 0.070221
v 0.054362 -0.026500 0.070282
v 0.054625 -0.026500 0.070382
v 0.054812 -0.026500 0.070518
v 0.054917 -0.026500 0.070687
v 0.054939 -0.026500 0.070886
v 0.054875 -0.026500 0.071108
v 0.054729 -0.026500 0.071349
v 0.054503 -0.026500 0.071602
v -0.054503 -0.026500 0.071602
v -0.054729 -0.026500 0.071349
v -0.054875 -0.026500 0.071108
v -0.054939 -0.026500 0.070886
v -0.054917 -0.026500 0.070687
v -0.054812 -0.026500 0.070518
v -0.054625 -0.026500 0.070382
v -0.054362 -0.026500 0.070282
v -0.054027 -0.026500 0.070221
v -0.053631 -0.026500 0.070201
v -0.046750 0.026500 -0.038173
v 0.046750 0.026500 -0.038173
v 0.046750 -0.026500 -0.038173
v -0.046750 -0.026500 -0.038173
v -0.048041 -0.026500 -0.038072
v -0.048041 0.026500 -0.038072
v 0.054399 0.026500 0.071707
v 0.054547 0.026500 0.071616
v 0.054678 0.026500 0.071504
v 0.054790 0.026500 0.071373
v 0.054880 0.026500 0.071226
v 0.054946 0.026500 0.071066
v 0.054986 0.026500 0.070899
v 0.055000 0.026500 0.070727
v 0.055000 0.026500 -0.029923
v 0.054898 0.026500 -0.031214
v 0.054596 0.026500 -0.032473
v 0.054101 0.026500 -0.033669
v 0.053424 0.026500 -0.034773
v 0.052584 0.026500 -0.035757
v 0.051599 0.026500 -0.036598
v 0.050495 0.026500 -0.037274
v 0.049299 0.026500 -0.037770
v 0.048041 0.026500 -0.038072
v -0.049299 0.026500 -0.037770
v -0.050495 0.026500 -0.037274
v -0.051599 0.026500 -0.036598
v -0.052584 0.026500 -0.035757
v -0.053424 0.026500 -0.034773
v -0.054101 0.026500 -0.033669
v -0.054596 0.026500 -0.032473
v -0.054898 0.026500 -0.031214
v -0.055000 0.026500 -0.029923
v -0.055000 0.026500 0.070727
v -0.054986 0.026500 0.070899
v -0.054946 0.026500 0.071066
v -0.054880 0.026500 0.071226
v -0.054790 0.026500 0.071373
v -0.054678 0.026500 0.071504
v -0.054547 0.026500 0.071616
v -0.054399 0.026500 0.071707
v 0.048041 -0.026500 -0.038072
v -0.054399 -0.026500 0.071707
v -0.054547 -0.026500 0.071616
v -0.054678 -0.026500 0.071504
v -0.054790 -0.026500 0.071373
v -0.054880 -0.026500 0.071226
v -0.054946 -0.026500 0.071066
v -0.054986 -0.026500 0.070899
v -0.055000 -0.026500 0.070727
v -0.055000 -0.026500 -0.029923
v -0.054898 -0.026500 -0.031214
v -0.054596 -0.026500 -0.032473
v -0.054101 -0.026500 -0.033669
v -0.053424 -0.026500 -0.034773
v -0.052584 -0.026500 -0.035757
v -0.051599 -0.026500 -0.036598
v -0.050495 -0.026500 -0.037274
v -0.049299 -0.026500 -0.037770
v 0.049299 -0.026500 -0.037770
v 0.050495 -0.026500 -0.037274
v 0.051599 -0.026500 -0.036598
v 0.052584 -0.026500 -0.035757
v 0.053424 -0.026500 -0.034773
v 0.054101 -0.026500 -0.033669
v 0.054596 -0.026500 -0.032473
v 0.054898 -0.026500 -0.031214
v 0.055000 -0.026500 -0.029923
v 0.055000 -0.026500 0.070727
v 0.054986 -0.026500 0.070899
v 0.054946 -0.026500 0.071066
v 0.054880 -0.026500 0.071226
v 0.054790 -0.026500 0.071373
v 0.054678 -0.026500 0.071504
v 0.054547 -0.026500 0.071616
v 0.054399 -0.026500 0.071707
vn -0.615200 0.000000 0.788300
vn -0.655000 0.000000 0.755600
vn 0.000000 -1.000000 0.000000
vn -0.575800 0.000000 0.817600
vn 0.000000 1.000000 0.000000
vn 0.655100 0.000000 0.755600
vn 0.615200 0.000000 0.788300
vn 0.575800 0.000000 0.817600
vn 0.535000 0.000000 0.844900
vn 0.492900 0.000000 0.870100
vn 0.449600 0.000000 0.893200
vn 0.405200 0.000000 0.914200
vn 0.359900 0.000000 0.933000
vn 0.313700 0.000000 0.949500
vn 0.266700 0.000000 0.963800
vn 0.219100 0.000000 0.975700
vn 0.171000 0.000000 0.985300
vn 0.122400 0.000000 0.992500
vn 0.073600 0.000000 0.997300
vn 0.024500 0.000000 0.999700
vn -0.024500 0.000000 0.999700
vn -0.073600 0.000000 0.997300
vn -0.122400 0.000000 0.992500
vn -0.171000 0.000000 0.985300
vn -0.219100 0.000000 0.975700
vn -0.266700 0.000000 0.963800
vn -0.313700 0.000000 0.949500
vn -0.359900 0.000000 0.933000
vn -0.405200 0.000000 0.914200
vn -0.449600 0.000000 0.893200
vn -0.492900 0.000000 0.870100
vn -0.535000 0.000000 0.844900
vn 0.000000 0.000000 -1.000000
vn -0.078500 0.000000 -0.996900
vn 0.078500 0.000000 -0.996900
vn -0.233400 0.000000 -0.972400
vn 0.382600 0.000000 0.923900
vn 0.522400 0.000000 0.852700
vn 0.649500 0.000000 0.760400
vn 0.760400 0.000000 0.649400
vn 0.852600 0.000000 0.522500
vn 0.923900 0.000000 0.382700
vn 0.972400 0.000000 0.233400
vn 0.996900 0.000000 0.078500
vn 1.000000 0.000000 0.000000
vn 0.996900 0.000000 -0.078500
vn 0.972400 0.000000 -0.233400
vn 0.923900 0.000000 -0.382700
vn 0.852600 0.000000 -0.522500
vn 0.760400 0.000000 -0.649400
vn 0.649400 0.000000 -0.760400
vn 0.522500 0.000000 -0.852600
vn 0.382700 0.000000 -0.923900
vn 0.233400 0.000000 -0.972400
vn -0.382700 0.000000 -0.923900
vn -0.522500 0.000000 -0.852600
vn -0.649400 0.000000 -0.760400
vn -0.760400 0.000000 -0.649400
vn -0.852600 0.000000 -0.522500
vn -0.923900 0.000000 -0.382700
vn -0.972400 0.000000 -0.233400
vn -0.996900 0.000000 -0.078500
vn -1.000000 0.000000 0.000000
vn -0.996900 0.000000 0.078500
vn -0.972400 0.000000 0.233400
vn -0.923900 0.000000 0.382700
vn -0.852600 0.000000 0.522500
vn -0.760400 0.000000 0.649400
vn -0.649500 0.000000 0.760400
vn -0.522400 0.000000 0.852700
vn -0.382900 0.000000 0.923800
usemtl None
s off
f 1//1 2//1 3//1 4//1
f 5//2 1//2 4//2 6//2
f 7//3 8//3 9//3 10//3 11//3 12//3 13//3 14//3 15//3 16//3 17//3 18//3 19//3 20//3 21//3 22//3 23//3 24//3 25//3 26//3 27//3 28//3 29//3 30//3 31//3 32//3 33//3 34//3 2//3 1//3 5//3 35//3 36//3 37//3 38//3 39//3 40//3
f 34//4 41//4 3//4 2//4
f 6//5 4//5 3//5 41//5 42//5 43//5 44//5 45//5 46//5 47//5 48//5 49//5 50//5 51//5 52//5 53//5 54//5 55//5 56//5 57//5 58//5 59//5 60//5 61//5 62//5 63//5 64//5 65//5 66//5 67//5 68//5 69//5 70//5 71//5 72//5 73//5 74//5
f 68//6 67//6 8//6 7//6
f 67//7 66//7 9//7 8//7
f 9//8 66//8 65//8 10//8
f 10//9 65//9 64//9 11//9
f 11//10 64//10 63//10 12//10
f 12//11 63//11 62//11 13//11
f 13//12 62//12 61//12 14//12
f 14//13 61//13 60//13 15//13
f 15//14 60//14 59//14 16//14
f 16//15 59//15 58//15 17//15
f 17//16 58//16 57//16 18//16
f 18//17 57//17 56//17 19//17
f 19//18 56//18 55//18 20//18
f 20//19 55//19 54//19 21//19
f 21//20 54//20 53//20 22//20
f 22//21 53//21 52//21 23//21
f 23//22 52//22 51//22 24//22
f 24//23 51//23 50//23 25//23
f 25//24 50//24 49//24 26//24
f 26//25 49//25 48//25 27//25
f 27//26 48//26 47//26 28//26
f 28//27 47//27 46//27 29//27
f 29//28 46//28 45//28 30//28
f 30//29 45//29 44//29 31//29
f 31//30 44//30 43//30 32//30
f 32//31 43//31 42//31 33//31
f 33//32 42//32 41//32 34//32
f 75//5 76//5 77//5 78//5 79//5 80//5 81//5 82//5 83//5 84//5 6//5 74//5 73//5 72//5 71//5 70//5 69//5 68//5 85//5 86//5 87//5 88//5 89//5 90//5 91//5 92//5 93//5 94//5
f 95//3 96//3 97//3 98//3 99//3 100//3 101//3 102//3 103//3 104//3 7//3 40//3 39//3 38//3 37//3 36//3 35//3 5//3 105//3 106//3 107//3 108//3 109//3 110//3 111//3 112//3 113//3 114//3
f 115//33 116//33 117//33 118//33
f 115//34 118//34 119//34 120//34
f 68//5 121//5 122//5 123//5 124//5 125//5 126//5 127//5 128//5 129//5 130//5 131//5 132//5 133//5 134//5 135//5 136//5 137//5 138//5 116//5 115//5 120//5 139//5 140//5 141//5 142//5 143//5 144//5 145//5 146//5 147//5 148//5 149//5 150//5 151//5 152//5 153//5 154//5 155//5 6//5 84//5 83//5 82//5 81//5 80//5 79//5 78//5 77//5 76//5 75//5 94//5 93//5 92//5 91//5 90//5 89//5 88//5 87//5 86//5 85//5
f 138//35 156//35 117//35 116//35
f 5//3 157//3 158//3 159//3 160//3 161//3 162//3 163//3 164//3 165//3 166//3 167//3 168//3 169//3 170//3 171//3 172//3 173//3 119//3 118//3 117//3 156//3 174//3 175//3 176//3 177//3 178//3 179//3 180//3 181//3 182//3 183//3 184//3 185//3 186//3 187//3 188//3 189//3 190//3 7//3 104//3 103//3 102//3 101//3 100//3 99//3 98//3 97//3 96//3 95//3 114//3 113//3 112//3 111//3 110//3 109//3 108//3 107//3 106//3 105//3
f 120//36 119//36 173//36 139//36
f 7//37 190//37 121//37 68//37
f 121//38 190//38 189//38 122//38
f 122//39 189//39 188//39 123//39
f 123//40 188//40 187//40 124//40
f 124//41 187//41 186//41 125//41
f 125//42 186//42 185//42 126//42
f 126//43 185//43 184//43 127//43
f 127//44 184//44 183//44 128//44
f 129//45 128//45 183//45 182//45
f 129//46 182//46 181//46 130//46
f 130//47 181//47 180//47 131//47
f 131//48 180//48 179//48 132//48
f 132//49 179//49 178//49 133//49
f 133//50 178//50 177//50 134//50
f 134//51 177//51 176//51 135//51
f 135//52 176//52 175//52 136//52
f 136//53 175//53 174//53 137//53
f 137//54 174//54 156//54 138//54
f 139//55 173//55 172//55 140//55
f 140//56 172//56 171//56 141//56
f 141//57 171//57 170//57 142//57
f 142//58 170//58 169//58 143//58
f 143//59 169//59 168//59 144//59
f 144//60 168//60 167//60 145//60
f 145//61 167//61 166//61 146//61
f 146//62 166//62 165//62 147//62
f 148//63 147//63 165//63 164//63
f 163//64 149//64 148//64 164//64
f 162//65 150//65 149//65 163//65
f 161//66 151//66 150//66 162//66
f 160//67 152//67 151//67 161//67
f 159//68 153//68 152//68 160//68
f 158//69 154//69 153//69 159//69
f 157//70 155//70 154//70 158//70
f 6//71 155//71 157//71 5//71
